<?xml version="1.0" encoding="utf-8"?>
<!-- Generator: Adobe Illustrator 24.0.1, SVG Export Plug-In . SVG Version: 6.00 Build 0)  -->
<svg version="1.1" id="Layer_1" xmlns="http://www.w3.org/2000/svg" xmlns:xlink="http://www.w3.org/1999/xlink" x="0px" y="0px"
	 viewBox="0 0 225 120" style="enable-background:new 0 0 225 120;" xml:space="preserve">
<g>
	<g>
		<g>
			<path d="M2.2,11.7c30.6,30.6,61.2,61.2,91.9,91.9c4.7,4.7,9.5,9.5,14.2,14.2c2.3,2.3,6.2,2.3,8.5,0
				c30.9-31.1,61.8-62.2,92.7-93.3c4.4-4.4,8.8-8.9,13.3-13.3c5.5-5.5-3-14-8.5-8.5c-30.9,31.1-61.8,62.2-92.7,93.3
				c-4.4,4.4-8.8,8.9-13.3,13.3c2.8,0,5.7,0,8.5,0c-31-31-62-62-93-93c-4.4-4.4-8.7-8.7-13.1-13.1C5.2-2.2-3.2,6.2,2.2,11.7
				L2.2,11.7z"/>
		</g>
	</g>
</g>
</svg>
