<svg id="Layer_1" data-name="Layer 1" xmlns="http://www.w3.org/2000/svg" width="1591.02" height="477.25" viewBox="0 0 1591.02 477.25"><defs><style>.cls-1{fill:#fff;stroke:#000;stroke-miterlimit:10;stroke-width:4px;}</style></defs><title>logo</title><g id="Layer_2" data-name="Layer 2"><g id="Layer_1-2" data-name="Layer 1-2"><path class="cls-1" d="M2.1,238.2q0,57.26-.07,114.52c0,3.45,1.08,5.36,4.05,7.07Q105,416.73,203.68,473.92c3.2,1.85,5.47,1.7,8.55-.09Q310.73,416.77,409.4,360c3.1-1.79,4.35-3.6,4.34-7.31q-.18-114,0-228c0-4-1.39-5.89-4.61-7.75Q311.23,60.45,213.44,3.77c-4.15-2.41-7.16-2.33-11.23,0Q104.49,60.52,6.58,116.88c-3.26,1.87-4.6,3.89-4.58,7.8C2.17,162.52,2.1,200.36,2.1,238.2ZM527.66,72.65V197.24c.27,4.91,2.61,7.22,7.51,7.46,6.85.34,9.47-2.09,9.47-9V97.53a133.19,133.19,0,0,1,11.55,15c2.79,4,5.84,7.73,5.79,13.34,0,4.73,3.9,7.29,8.59,7.12s7.49-2.94,8-7.9c.18-1.65-.39-3.68.38-4.92,4.75-7.67,9.78-15.17,14.73-22.73l1,.41v98.4c0,6.1,2.5,8.46,8.52,8.46s8.45-2.4,8.46-9v-119c0-1.28-.2-2.56-.34-4.16-5.76,0-11.24.18-16.71-.07a6.56,6.56,0,0,0-6.5,3.39c-5.77,8.73-11.75,17.32-17.92,26.36C563.57,93,557.37,84.15,551,75.43a6.56,6.56,0,0,0-4.22-2.59C540.66,72.48,534.5,72.65,527.66,72.65Zm67.19,317.6c-1.4.65-2.26,1.4-3.13,1.4-14,0-28,.06-42-.11-3.37,0-4.75-2.36-5.09-5.66-.62-6-3.74-8.9-8.81-8.56-4.88.32-8,3.95-8.17,9.58-.38,11.27,9.42,21.52,21.59,21.8,14.49.34,29,.31,43.5,0,12.1-.24,20.16-9.06,18.68-20.94-.54-4.33-3.1-8.77-5.79-12.38-9.25-12.43-19-24.51-28.51-36.73-10.15-13-20.35-26-30.43-39-3-3.85-2.29-5.77,2-5.82,13.17-.13,26.33,0,39.5.08,4.28,0,6.16,2.39,6.46,6.61.39,5.35,3.37,8.07,8.21,8.05s8.31-3.38,8.74-8.48c1-11.68-9.36-23-21.81-23.26-14.66-.3-29.34-.24-44,0-10.11.15-17.89,8.69-18.25,18.85-.23,6.58,3.08,11.35,6.81,16.13q28.47,36.44,56.87,72.94A59,59,0,0,1,594.85,390.25ZM835.29,147.33c-1.18.07-2.15.17-3.12.17-11.49,0-23-.1-34.49.05-14.41.18-24,10-24,24.31v9c.1,13.07,9.65,23.32,22.66,23.77,13.91.47,28.06,1.77,40.34-7.17a1.43,1.43,0,0,1,.46-.13c2.67,5.88,6.39,8.45,10.88,7.19,4.65-1.31,5.94-5,5.8-9.35-.62-20-1.07-39.95-2-59.9-.59-12.11-9.49-21.47-21.58-22.3-10.78-.74-21.65-.4-32.47-.16-5.23.11-8,3.12-8.06,7.69-.13,4.88,2.49,7.89,8,8.21,7.31.42,14.65.42,22,.45,14.39.06,16.77,2.57,15.89,17.09A8,8,0,0,0,835.29,147.33Zm97.41,8.16L940,149.4c8.58-7.13,17.23-14.19,25.72-21.42,4.47-3.81,5.06-8.32,2-12.29-2.93-3.78-7.68-4.06-12.44-.72a24.84,24.84,0,0,0-2,1.55L919.73,145c-2,1.67-4,3.31-6.87,5.69V118.75c0-10.25.11-20.33-.06-30.5-.1-6.18-3.36-9-9.09-8.54-4.66.41-7,3.5-7,9.75q-.06,35,0,70c0,11.83-.05,23.67,0,35.5,0,6.68,2.64,9.75,8,9.8s8-2.88,8.16-9.56c.09-5.16.5-10.39-.1-15.48-.74-6.34,2.44-9.79,7.28-12.72,14,11.68,27.71,23.27,41.56,34.73,5.06,4.19,9.93,4.06,13.17,0s2.5-8.78-2.49-13c-9.27-7.86-18.66-15.59-28-23.39-3.81-3.21-7.56-6.43-11.59-9.85Zm616.7,161.27c-5.5,0-11-.06-16.49,0-10.36.12-18.83,6.34-20.93,15.3-2.52,10.72,1.47,19.45,11.47,24.54,5,2.56,10.24,4.78,15.37,7.16,9.34,4.35,18.77,8.53,28,13.12,5.4,2.69,6.65,5.95,4.92,10.46-1.59,4.15-5.2,4.86-9,4.9-8.66.09-17.32,0-26,.05-5.28,0-10.09-.63-14.23-4.64-3.18-3.08-8.14-2.31-11.23.94s-3.23,7.49.34,11.11c5.17,5.26,11.26,8.94,18.87,9,11.66.13,23.33.3,35-.05,12.51-.38,21.13-7.75,23-18.9,2.22-13.05-2.45-22.45-14.5-28.19-13.66-6.5-27.48-12.68-41.21-19-2.59-1.19-6.07-2.59-4.53-5.89.86-1.86,4.38-3.39,6.77-3.48,8.81-.34,17.64.09,26.46,0,4.38,0,8,1,11.26,4.21a8.16,8.16,0,0,0,11.54.15c.16-.16.31-.32.46-.49,3.2-3.44,2.87-8.31-.85-12-5.54-5.49-11.9-8.91-20-8.4-4.82.34-9.66.1-14.49.1ZM651.67,362.2v19a20,20,0,0,0,5.52,14c8.16,8.67,17.24,15.16,30.07,13.63a38.7,38.7,0,0,1,9,0c12.84,1.49,22.27-4.75,29.83-13.91a24.83,24.83,0,0,0,5.36-13.44,369.33,369.33,0,0,0,0-37.94A21.51,21.51,0,0,0,727,331.3c-8-9.38-17.77-16.1-31.17-14.58a32.26,32.26,0,0,1-7.48,0c-12.4-1.47-21.8,4.09-30.23,12.37a20.21,20.21,0,0,0-6.45,15.13Q651.68,353.2,651.67,362.2Zm692.07.56c0-6.33.53-12.72-.19-19-.48-4.27-1.69-9.2-4.35-12.33-8-9.38-17.66-16.23-31.08-14.76a35.67,35.67,0,0,1-8,0c-12.43-1.42-21.76,4.27-30.16,12.57a19.91,19.91,0,0,0-6.24,14.71v37a20.65,20.65,0,0,0,6,14.86c8.15,8.46,17.28,14.58,29.85,13a35.38,35.38,0,0,1,8.48,0c12.6,1.55,21.63-4.76,29.77-13.2a20.55,20.55,0,0,0,5.89-14.91C1343.72,374.75,1343.74,368.75,1343.74,362.76Zm58.39-32.39c-.16-2.81-.14-4.64-.38-6.43-.72-5.36-4.08-7.87-9.42-7.15-4.32.58-6.54,3.69-6.57,9.67-.06,14.49,0,29,0,43.49,0,9.83-.07,19.66,0,29.49.07,5.86,2.45,8.9,6.92,9.34,5.83.59,9.1-2.42,9.17-9,.14-12.67.64-25.37-.15-38-.55-8.67,1.61-14.51,9.89-18a53.3,53.3,0,0,0,10.58-6.58c4.39-3.24,9.15-4.27,14.53-4,8.18.36,10.58,2.46,11,10.81.38,8.15.61,16.3.9,24.46.38,10.48.61,21,1.17,31.44.38,7,5.14,10.7,10.9,8.57,5-1.86,5.37-6.4,5.23-10.84q-.95-30.45-2.1-60.89a19.29,19.29,0,0,0-7.83-15c-8-6.29-27.38-7.43-37.1-1.85C1413.41,323.05,1408.2,326.56,1402.13,330.37ZM960.24,395.32c.25,2.78.28,4.75.62,6.66.87,4.89,3.9,7.16,8.81,6.81s7-3.24,7-9.58v-72a21.43,21.43,0,0,0-.17-3.49c-.93-5.4-4.82-8.12-10.12-6.87-4.84,1.13-5.84,5-5.85,9.23,0,15.16,0,30.32-.11,45.48,0,1.73-.72,4.19-2,5A266.7,266.7,0,0,1,935.67,391c-10.76,5.82-20.47,0-20.87-12-.34-10.48-.66-21-1.06-31.43-.3-8-.5-16-1.13-23.93-.34-4.29-2.83-6.9-7.57-6.95s-7.11,2.32-8,6.61a21.52,21.52,0,0,0-.41,5q1,29.69,2,59.38c.33,8.37,4.21,15,11.86,18.26,11.12,4.7,22.66,4.87,33.66-.67C949.6,402.59,954.44,399,960.24,395.32Zm75.3-61.33v5.52c0,15.16-.09,30.32,0,45.48.1,12.12,6.85,21.22,18.8,22.81a104.74,104.74,0,0,0,27.74-.35c9-1.22,16.23-10.84,16.7-19.51.35-6.36-4.66-11-10.45-8.92a11.55,11.55,0,0,0-6.07,6.42c-1.74,4.92-4.64,7-9.61,6.86-3.66-.09-7.33.06-11,0-7.22-.21-9.67-2.37-9.77-9.65-.23-15.82-.13-31.65-.14-47.47a8.21,8.21,0,0,1,.56-1.87h6.3c7.82-.11,15.65,0,23.45-.43,5.58-.29,8.44-3.34,8.43-8s-3.24-7.86-9-8.06c-6.16-.21-12.32-.05-18.48-.05h-11.4c0-7,.16-13.14,0-19.29s-3.72-9.26-9.13-8.67c-4.39.48-6.81,3.39-6.93,8.83-.15,6.27,0,12.54,0,18.63-6.69,1.59-16.19-2.25-16.45,8.36-.26,11,9.73,7.23,16.45,9.37ZM806.23,299.93v92.73c-5.55,0-10.84-.26-16.1.07s-7.9,3.12-7.92,7.76,2.84,8.07,8.21,8.16q23.73.36,47.46,0c5.4-.07,8.3-3.33,8.3-8,0-5-2.45-7.56-8.24-7.93-4.91-.31-9.87-.07-15.25-.07V293.84c0-7.52-2.41-10-9.8-10.06q-10.5-.12-21,0c-6.21.09-9.48,2.8-9.68,7.73-.21,5.11,2.61,8,8.95,8.37C796.07,300.17,801,299.93,806.23,299.93ZM667.84,129.85v-7.08c-.12-7-2.73-10.15-8.24-10.1-5.3,0-7.88,3.13-7.9,9.86q-.08,36.25,0,72.51c0,1.79,0,4.18,1.07,5.23,1.92,1.9,4.64,4.12,7,4.12s5.23-2.17,7-4.18c1.18-1.37,1-4.1,1-6.22.08-12.67-.09-25.34.17-38a9.53,9.53,0,0,1,2.92-6.16c6.45-5.77,13.38-11,19.86-16.75,6.06-5.39,13.12-4.76,19.82-3,5.68,1.47,4.51,7.38,5.1,11.89.17,1.28.47,3.09,1.35,3.64,2.38,1.48,5.17,3.44,7.67,3.27,2.17-.15,5.46-2.61,6-4.66,4.91-17.94-7.73-31.52-21.13-31.51-3.5,0-7,.25-10.5-.06-6.58-.6-12,1.69-17,5.76C677.72,122,673.29,125.46,667.84,129.85Zm522.88,262.8V326.54c0-7.19-2.47-9.66-9.58-9.76s-14-.09-21,0c-6.52.08-9.84,2.85-9.9,8s2.73,7.7,9.23,8.1c4.88.31,9.8.06,14.69.06v59.68c-5.52,0-10.67-.25-15.79.07-5.46.34-8,3-8.13,7.58-.13,4.8,2.66,8.24,8,8.33q24,.4,48,0c5.34-.09,8.14-3.53,8-8.29s-2.53-7.29-8-7.64C1201.25,392.4,1196.27,392.65,1190.72,392.65Zm-12.28-92.73h2.49c7.8-.08,9.61-1.9,9.63-9.73v-3c0-8.94-1.51-10.45-10.32-10.46-14.62,0-14.68,0-14.52,14.63.07,6.34,2,8.33,8.24,8.53,1.49.11,3,0,4.48,0Z" transform="translate(0 0.01)"/><path class="cls-1" d="M17.9,122.53c11-6.38,21.47-12.44,31.93-18.48q76.91-44.43,153.76-88.92c3.17-1.84,5.37-1.78,8.49.07,15.73,9.32,31.62,18.37,48.18,27.92L142.62,111.34l5,8.74,33.09-19.15q42.79-24.79,85.56-49.61c2.41-1.4,4.35-2.33,7.26-.64q61.07,35.49,122.24,70.75a18.94,18.94,0,0,1,1.62,1.21c-1.15.83-2.06,1.63-3.1,2.23q-91.44,52.88-183,105.65c-1.55.89-4.31,1.36-5.69.58-20.43-11.56-40.72-23.37-61-35.13a10.53,10.53,0,0,1-1.46-1.37l142.55-82c-1.61-2.86-3.1-5.52-4.8-8.53-1.51.74-2.83,1.3-4.07,2q-69.72,40.07-139.39,80.22c-3.3,1.91-5.82,2.37-9.42.27C92.77,166,57.41,145.68,22.1,125.27,20.85,124.55,19.69,123.7,17.9,122.53Z" transform="translate(0 0.01)"/><path class="cls-1" d="M303.13,305.65v5.47c0,31.16-.05,62.31.08,93.47,0,3.6-1,5.66-4.25,7.49-27.31,15.59-54.5,31.38-81.73,47.1-1.13.65-2.32,1.21-4.06,2.11-.15-1.77-.36-3.13-.36-4.5,0-31.66-.07-63.31.11-95,0-2.05,1.22-5.06,2.82-6,28.26-16.59,56.67-32.93,85.05-49.32A21.62,21.62,0,0,1,303.13,305.65Z" transform="translate(0 0.01)"/><path class="cls-1" d="M202.79,461.58c-11.72-6.73-22.49-12.91-33.24-19.12-17.73-10.22-35.47-20.42-53.1-30.81-1.67-1-3.66-3.27-3.67-5-.21-33.48-.16-67-.16-101.37,1.89,1,3.29,1.69,4.63,2.46,27.08,15.64,54.13,31.34,81.28,46.86,3.12,1.78,4.38,3.64,4.36,7.34-.17,31.32-.1,62.64-.1,94Z" transform="translate(0 0.01)"/><path class="cls-1" d="M813.26,163.9c5,0,10-.33,14.94.08,6.35.53,10.74,8.3,8.34,14.17a2,2,0,0,1-.84,1.15c-7.41,3-13.45,9.35-22.28,8.93-4.8-.23-9.64.14-14.44-.12-6.85-.36-9.07-2.88-9.13-9.69-.11-13,1.55-14.7,14.44-14.73h9Z" transform="translate(0 0.01)"/><path class="cls-1" d="M715.51,362.76v11c0,11.4-7.14,18.46-18.7,18.52H686.32c-11.43-.08-18.47-7.23-18.48-18.75,0-7.83-.05-15.66,0-23.48a17.29,17.29,0,0,1,15.95-16.7c5.15-.26,10.33-.24,15.48,0a17.29,17.29,0,0,1,16.22,16.94C715.54,354.44,715.51,358.6,715.51,362.76Z" transform="translate(0 0.01)"/><path class="cls-1" d="M1327.57,362.87v11c0,11.13-7.16,18.32-18.31,18.42h-10.49c-11.86,0-18.87-7-18.87-18.85v-23a17.27,17.27,0,0,1,16.55-17.13c4.82-.17,9.66-.17,14.48,0a17.28,17.28,0,0,1,16.62,17.06C1327.59,354.54,1327.57,358.7,1327.57,362.87Z" transform="translate(0 0.01)"/></g></g></svg>