<svg id="Layer_1" data-name="Layer 1" xmlns="http://www.w3.org/2000/svg" width="1699.22" height="565.48" viewBox="0 0 1699.22 565.48"><defs><style>.cls-1{fill-rule:evenodd;}.cls-2{fill:none;stroke:#000;stroke-miterlimit:10;stroke-width:5px;}</style></defs><title>MrakSolutions logo fill</title><path d="M359.23,255.48l23.85,13.78,21.51,12.42,25.71,14.86L451,308.49l26.11,15.09,21,12.13L523,350.1l22.56,13,22.5,13,24.85,14.35,4.81,2.79c3.4,2,8.37.9,10.27-2.69a7.65,7.65,0,0,0-2.69-10.27l-23.86-13.78-21.5-12.42-25.71-14.86L513.53,327.3l-26.11-15.09-21-12.13-24.9-14.38-22.55-13-22.5-13-24.85-14.36-4.82-2.79c-3.4-2-8.36-.9-10.26,2.69a7.65,7.65,0,0,0,2.69,10.27Z" transform="translate(-116.36 -241.53)"/><polyline class="cls-1" points="246.66 7.47 261.56 16.09 276.47 24.7 291.37 33.31 306.28 41.92 321.18 50.53 336.09 59.15 350.99 67.76 365.9 76.37 380.8 84.98 395.71 93.59 410.61 102.21 425.52 110.82 440.42 119.43 455.33 128.04 470.23 136.65 485.14 145.26"/><line x1="484.48" y1="420.18" x2="485.14" y2="145.27"/><path d="M608.34,661.71l0-7.39,0-20,.07-29.68.09-36,.1-39.66.09-39.77.09-37.33.08-31.34.05-22.68c0-3.56.06-7.12,0-10.68v-.47c0-3.92-3.46-7.68-7.5-7.5a7.63,7.63,0,0,0-7.5,7.5l0,7.39-.05,19.95-.07,29.68-.08,36-.1,39.66-.1,39.77-.09,37.33-.07,31.34-.06,22.68c0,3.56-.05,7.12,0,10.68v.47c0,3.92,3.45,7.68,7.5,7.5a7.63,7.63,0,0,0,7.5-7.5Z" transform="translate(-116.36 -241.53)"/><polyline points="246.66 7.47 187.03 41.92 127.41 76.37 67.79 110.82 8.17 145.26"/><path d="M359.23,242.52,339,254.22l-32.08,18.53-12,6.91-30.74,17.76L240.37,311.2l-16.61,9.6-33,19.06-12.93,7.47-28.57,16.51-27,15.62-1.48.85c-3.4,2-4.88,6.87-2.69,10.27a7.65,7.65,0,0,0,10.26,2.69l20.24-11.7L180.64,363l12-6.91,30.74-17.76,23.84-13.78,16.61-9.6,33-19.06,12.93-7.47L338.29,272l27-15.61,1.49-.86c3.4-2,4.88-6.87,2.69-10.27a7.65,7.65,0,0,0-10.26-2.69Z" transform="translate(-116.36 -241.53)"/><polyline points="245.99 557.98 245.99 488.91 245.99 419.85"/><path d="M369.85,799.5V689.58c0-9.25.1-18.49,0-27.74v-.46c0-3.93-3.45-7.68-7.5-7.5a7.63,7.63,0,0,0-7.5,7.5V771.3c0,9.24-.09,18.49,0,27.73,0,.16,0,.31,0,.47,0,3.92,3.45,7.68,7.5,7.5a7.63,7.63,0,0,0,7.5-7.5Z" transform="translate(-116.36 -241.53)"/><line x1="141.99" y1="153.88" x2="320.85" y2="50.53"/><path d="M262.13,401.88l4.78-2.76,13-7.51,19.23-11.12,23.47-13.55,25.71-14.86L374.38,337l24.2-14L419,311.23l14.7-8.5c2.32-1.34,4.66-2.65,7-4l.3-.17c3.39-2,4.87-6.87,2.69-10.27a7.65,7.65,0,0,0-10.26-2.69l-4.78,2.76-13,7.52L396.42,307,373,320.53l-25.71,14.85-26.06,15.06-24.2,14-20.45,11.81-14.7,8.5c-2.32,1.34-4.66,2.65-7,4l-.3.18c-3.4,2-4.88,6.87-2.69,10.26a7.64,7.64,0,0,0,10.26,2.69Z" transform="translate(-116.36 -241.53)"/><line x1="156.56" y1="230.72" x2="335.42" y2="127.38"/><path d="M276.71,478.72l4.77-2.76,13-7.51,19.23-11.11,23.47-13.56,25.7-14.85L389,413.87l24.19-14,20.45-11.82,14.71-8.49c2.32-1.34,4.66-2.66,7-4l.3-.17c3.4-2,4.88-6.87,2.69-10.26A7.64,7.64,0,0,0,448,362.43l-4.78,2.76-13,7.51L411,383.81l-23.47,13.56-25.71,14.85-26.06,15.06-24.2,14-20.44,11.82-14.71,8.49c-2.32,1.34-4.66,2.66-7,4l-.3.17c-3.4,2-4.88,6.87-2.69,10.26a7.64,7.64,0,0,0,10.26,2.69Z" transform="translate(-116.36 -241.53)"/><polyline points="365.37 489 424.92 454.59 484.48 420.18"/><path d="M485.51,737l20.2-11.67,32.11-18.55,11.92-6.89,30.59-17.67c8-4.6,16-9.14,23.89-13.8l.4-.23c3.4-2,4.88-6.87,2.69-10.27a7.65,7.65,0,0,0-10.26-2.69l-20.2,11.67-32.1,18.55-11.93,6.89L502.23,710c-8,4.6-16,9.14-23.88,13.8l-.41.23c-3.4,2-4.88,6.87-2.69,10.26A7.63,7.63,0,0,0,485.51,737Z" transform="translate(-116.36 -241.53)"/><polyline points="7.51 420.18 67.17 454.66 126.84 489.13"/><path d="M120.08,668.19l20.26,11.7,32.1,18.55,12,6.91,30.66,17.71c8,4.61,15.93,9.29,23.94,13.84l.4.23c3.4,2,8.37.9,10.27-2.69a7.64,7.64,0,0,0-2.7-10.26l-20.25-11.71-32.1-18.54-12-6.92L152,669.3c-8-4.61-15.93-9.28-23.94-13.83l-.4-.24c-3.4-2-8.37-.9-10.27,2.69a7.65,7.65,0,0,0,2.69,10.27Z" transform="translate(-116.36 -241.53)"/><line x1="8.17" y1="145.27" x2="7.51" y2="420.18"/><path d="M117,386.79l0,7.39,0,19.95-.07,29.68-.09,36-.1,39.66-.09,39.77-.09,37.33-.08,31.34,0,22.68c0,3.56-.06,7.12,0,10.68v.47c0,3.92,3.46,7.68,7.5,7.5a7.63,7.63,0,0,0,7.5-7.5l0-7.39.05-20,.07-29.68.08-36,.1-39.66.1-39.77.09-37.33.07-31.34.06-22.68c0-3.56.05-7.12,0-10.68v-.47c0-3.92-3.45-7.68-7.5-7.5a7.63,7.63,0,0,0-7.5,7.5Z" transform="translate(-116.36 -241.53)"/><path d="M120.75,393.27l23.69,13.66L166,419.35l25.66,14.8,20.64,11.9,26,15,20.87,12,24.85,14.33,22.39,12.91,22.55,13,24.8,14.3,4.78,2.75c3.4,2,8.36.91,10.26-2.69a7.64,7.64,0,0,0-2.69-10.26l-23.7-13.66L320.9,491.36l-25.67-14.8-20.64-11.9-26-15-20.87-12-24.86-14.33-22.38-12.91-22.55-13-24.8-14.3-4.78-2.76c-3.4-2-8.36-.9-10.26,2.7a7.64,7.64,0,0,0,2.69,10.26Z" transform="translate(-116.36 -241.53)"/><polyline class="cls-1" points="8.17 145.26 23.04 153.84 37.9 162.41 52.76 170.98 67.63 179.55 82.49 188.12 97.36 196.69 112.22 205.26 127.08 213.83 141.95 222.4 156.81 230.97 171.67 239.54 186.54 248.11 201.4 256.68 216.26 265.25 231.13 273.82 245.99 282.39"/><polyline points="485.14 145.26 425.35 179.55 365.57 213.83 305.78 248.11 245.99 282.39"/><path d="M597.71,380.31,577.42,392,545.25,410.4l-12,6.88L502.43,435l-23.9,13.71-16.66,9.55-33.1,19-13,7.43-28.65,16.43-27.1,15.54-1.49.85c-3.41,2-4.87,6.88-2.69,10.26a7.64,7.64,0,0,0,10.26,2.69l20.3-11.63,32.16-18.45,12-6.88,30.82-17.67,23.91-13.71L502,452.5l33.09-19,13-7.43,28.65-16.43,27.1-15.54,1.5-.85c3.4-2,4.87-6.88,2.69-10.26a7.66,7.66,0,0,0-10.27-2.7Z" transform="translate(-116.36 -241.53)"/><polyline points="126.75 489.08 126.92 420.35 127.08 351.62"/><path d="M250.61,730.6l.06-23.3.09-37.06,0-13.76.09-35.3c0-9.19.11-18.38.06-27.57v-.46c0-3.93-3.45-7.69-7.5-7.5a7.63,7.63,0,0,0-7.5,7.5l-.05,23.3-.09,37.06,0,13.76-.09,35.3c0,9.19-.12,18.38-.07,27.57,0,.15,0,.31,0,.46,0,3.93,3.46,7.69,7.5,7.5a7.63,7.63,0,0,0,7.5-7.5Z" transform="translate(-116.36 -241.53)"/><polyline points="365.24 489.08 365.4 420.35 365.57 351.62"/><path d="M489.1,730.6l0-23.3.09-37.06,0-13.76.08-35.3c0-9.19.12-18.38.07-27.57v-.46c0-3.93-3.46-7.69-7.5-7.5a7.63,7.63,0,0,0-7.5,7.5l-.06,23.3-.09,37.06,0,13.76-.08,35.3c0,9.19-.12,18.38-.07,27.57v.46c0,3.93,3.45,7.69,7.5,7.5a7.63,7.63,0,0,0,7.5-7.5Z" transform="translate(-116.36 -241.53)"/><line x1="127.41" y1="351.95" x2="245.99" y2="420.18"/><path d="M240,600l11.82,6.81,28.39,16.33,34.2,19.68,29.57,17c4.79,2.76,9.55,5.61,14.39,8.29l.21.12c3.4,1.95,8.36.9,10.26-2.7a7.63,7.63,0,0,0-2.69-10.26l-11.82-6.8L325.93,632.1l-34.2-19.69-29.57-17c-4.79-2.76-9.55-5.6-14.39-8.28l-.21-.12c-3.4-2-8.36-.91-10.26,2.69A7.63,7.63,0,0,0,240,600Z" transform="translate(-116.36 -241.53)"/><line x1="365.9" y1="351.95" x2="245.99" y2="420.18"/><path d="M478.47,587l-12,6.81-28.63,16.3-34.62,19.7-29.92,17c-4.85,2.76-9.76,5.43-14.56,8.29l-.2.11c-3.41,1.94-4.87,6.89-2.69,10.26a7.65,7.65,0,0,0,10.26,2.7l12-6.82,28.64-16.29,34.61-19.7,29.93-17c4.84-2.76,9.76-5.43,14.55-8.28l.2-.12c3.42-1.94,4.87-6.88,2.69-10.26A7.64,7.64,0,0,0,478.47,587Z" transform="translate(-116.36 -241.53)"/><polyline points="127.04 488.75 186.7 523.23 246.37 557.7"/><path d="M239.61,736.76l20.26,11.7L292,767l12,6.91,30.66,17.71c8,4.61,15.92,9.29,23.94,13.84l.4.23c3.4,2,8.37.9,10.26-2.69a7.62,7.62,0,0,0-2.69-10.26L346.26,781l-32.1-18.54-12-6.92-30.66-17.71c-8-4.61-15.93-9.28-23.94-13.83l-.4-.24c-3.4-2-8.37-.9-10.27,2.69a7.65,7.65,0,0,0,2.69,10.27Z" transform="translate(-116.36 -241.53)"/><polyline points="246.15 557.64 305.7 523.23 365.26 488.82"/><path d="M366.29,805.64,386.49,794l32.11-18.55,11.92-6.89,30.59-17.68c8-4.6,16-9.13,23.89-13.8l.4-.23c3.4-2,4.88-6.87,2.7-10.26a7.65,7.65,0,0,0-10.27-2.69l-20.19,11.67-32.11,18.55L413.6,761,383,778.65c-8,4.6-16,9.14-23.88,13.8l-.41.24c-3.39,2-4.87,6.86-2.69,10.26a7.64,7.64,0,0,0,10.26,2.69Z" transform="translate(-116.36 -241.53)"/><polygon points="365.93 353.05 246.36 421.1 127.78 352.86 127.45 352.86 127.28 421.25 127.12 489.99 67.54 455.56 7.87 421.1 8.53 146.18 23.4 154.75 38.26 163.31 53.13 171.88 67.99 180.46 82.85 189.03 97.72 197.59 112.58 206.16 127.45 214.74 142.31 223.31 157.17 231.88 172.04 240.44 186.9 249.01 201.76 257.6 216.63 266.17 231.49 274.74 246.36 283.31 306.14 249.01 365.93 214.74 425.72 180.46 485.02 146.46 484.35 420.54 484.72 421.17 425.29 455.5 365.73 489.92 365.6 489.92 365.77 421.25 365.93 353.05"/><polyline class="cls-2" points="365.73 489.92 425.29 455.5 484.72 421.17 484.84 421.1"/><polyline class="cls-2" points="7.87 421.1 67.54 455.56 127.12 489.99 127.2 490.04"/><line class="cls-2" x1="8.53" y1="146.17" x2="7.87" y2="421.09"/><polyline class="cls-2" points="8.53 146.18 23.4 154.75 38.26 163.31 53.13 171.88 67.99 180.46 82.85 189.03 97.72 197.59 112.58 206.16 127.45 214.74 142.31 223.31 157.17 231.88 172.04 240.44 186.9 249.01 201.76 257.6 216.63 266.17 231.49 274.74 246.36 283.31"/><polyline class="cls-2" points="485.5 146.18 485.02 146.46 425.72 180.46 365.93 214.74 306.14 249.01 246.36 283.31"/><polyline class="cls-2" points="127.12 489.99 127.28 421.25 127.45 352.86 127.45 352.52"/><polyline class="cls-2" points="365.6 489.99 365.6 489.92 365.77 421.25 365.93 353.05 365.93 352.52"/><line class="cls-2" x1="127.78" y1="352.85" x2="246.36" y2="421.09"/><polyline class="cls-2" points="366.26 352.86 365.93 353.05 246.36 421.1"/><polyline class="cls-2" points="484.35 420.54 485.02 146.46 485.02 145.63"/><path d="M758.46,348.65H781v131c0,5.76-2.52,9-9,9s-9-3.24-9-9V373.49h-.36l-17.1,25.38v2.88c0,5.58-2.16,10.8-9,10.8-6.48,0-9-5.22-9-10.8v-2.88l-17.1-25.38H710v106.2c0,5.76-2.52,9-9,9s-9-3.24-9-9v-131h22.49l22,31.68Z" transform="translate(-116.36 -241.53)"/><path d="M823.8,404.45c0-6.3.72-12.78,8.64-12.78,6.84,0,8.64,5.76,8.64,11.52v7l13.5-11.16c4.86-4,9.9-7.38,15.3-7.38h13.86a22.8,22.8,0,0,1,16.92,6.84c5.76,5.76,7.74,11.7,7.74,19.62,0,5.94-1.08,12.06-8.46,12.06-6.3,0-8.82-5-8.82-10.62,0-2.88,0-5-1.8-7.56C887.16,409,883,409,878.88,409h-5c-3.24,0-5.58,1.62-8.64,4.14l-24.12,20v43.74c0,5.94-1.26,11.88-8.64,11.88s-8.64-5.94-8.64-11.88Z" transform="translate(-116.36 -241.53)"/><path d="M982.38,409c-5,0-11.88-1.08-11.88-8.64,0-7.38,6.12-8.64,11.88-8.64h23.76c9,0,15.48.9,22.32,7.74,6.66,6.66,7.56,11.88,7.74,20.52l1.8,58.68c.18,5-2.34,10.08-8.1,10.08-4.5,0-9-3.78-8.82-8.64l-11.88,6.12c-4.86,2.52-5,2.52-10.62,2.52H982c-7.74,0-13.32-.9-19.62-6.12-7.2-5.94-9-12.24-9-21.24v-7.56c0-8.28,2-13.5,8.46-19.26,5.94-5.22,12.6-6.48,20.16-6.48h37.08v-4c0-13-2.88-15.12-15.3-15.12Zm-.18,36.36c-4.68,0-11.52,1.26-11.52,7.56v11.52c0,5.76,7,7,11.16,7h19.08l19.08-9.9v-3.78c0-9.54-2.7-12.42-12.24-12.42Z" transform="translate(-116.36 -241.53)"/><path d="M1139.88,398.69c3.06-2.7,7.38-7,11.52-7a8.69,8.69,0,0,1,8.64,8.82c0,4.14-2.71,6.12-5.76,8.64l-33.48,27.72,40.67,33.84c3.24,2.7,6.12,4.68,6.12,9.18a8.68,8.68,0,0,1-8.63,8.82c-3.42,0-5.58-2.16-8.1-4.14l-43.38-36.18-7.2,6.48v22c0,5.94-1.26,11.88-8.64,11.88s-8.64-5.94-8.64-11.88V367.91c0-5.94,1.26-11.88,8.64-11.88s8.64,5.94,8.64,11.88V432Z" transform="translate(-116.36 -241.53)"/><path d="M774.66,669.41c3.6,4.68,6.3,8.82,6.3,14.94,0,13.5-10.26,20.34-22.68,20.34h-39.6c-6.84,0-12.77-1.26-18.17-5.76-4.86-4-8.46-10.44-8.46-16.74,0-5.76,3.24-10.8,9.54-10.8,5.22,0,8.45,4.32,8.45,9.18,0,5.4,2.88,6.12,7.92,6.12H757c1.44,0,5.94.54,5.94-2.16,0-1.44-2.52-4.14-3.24-5.22L698,599.93c-3.78-4.86-5.94-8.46-5.94-14.76a20.06,20.06,0,0,1,9.54-17.28c5-3.24,9.18-3.24,14.93-3.24h38.16c6.84,0,12.6,1.44,17.82,5.94,4.68,4.14,8.46,10.8,8.46,17.1,0,5.76-2.88,10.44-9.36,10.44-5.4,0-8.64-3.42-8.64-8.46,0-6.12-3.06-7-8.64-7H716.16c-2,0-6.12-.54-6.12,2.52,0,1.62,2,3.78,2.71,4.86Z" transform="translate(-116.36 -241.53)"/><path d="M823.8,639.89c0-11.52,2.34-15.48,11-22.5,8.46-7,12.42-9.72,24.48-9.72h13.68c12.06,0,16,2.7,24.48,9.72,8.64,7,11,11,11,22.5v32.58c0,11.34-2.88,15.66-11.88,23.22s-12.6,9-23.58,9H859.26c-11,0-14.58-1.44-23.58-9s-11.88-11.88-11.88-23.22Zm17.28,32.58c0,3.6,1.26,5.94,6.3,10.26,3.78,3.24,6.48,4.68,11.88,4.68h13.68c5.4,0,8.1-1.44,11.88-4.68,5-4.32,6.3-6.66,6.3-10.26V639.89c0-3.6-1.26-5.94-6.3-10.26-3.78-3.24-6.48-4.68-11.88-4.68H859.26c-5.4,0-8.1,1.44-11.88,4.68-5,4.32-6.3,6.66-6.3,10.26Z" transform="translate(-116.36 -241.53)"/><path d="M1004.7,687.41h13c5.76,0,11.88,1.26,11.88,8.64,0,7.56-6.84,8.64-11.88,8.64H973.74c-5,0-11.88-1.08-11.88-8.64,0-7.38,6.12-8.64,11.88-8.64h13.68v-98.1H973.74c-5,0-11.88-1.08-11.88-8.64,0-7.38,6.12-8.64,11.88-8.64h18.18c9.9,0,12.78,1.8,12.78,12.06Z" transform="translate(-116.36 -241.53)"/><path d="M1167.59,691.91c0,4,.72,12.78-8.46,12.78-7.38,0-8.63-6.12-8.63-12.06v-2.88l-14,9.18c-5.58,3.6-10.26,5.76-14.94,5.76h-12.78c-4.86,0-10.26-1.44-16-6.3-7.74-6.66-7.56-14-7.92-23.4l-1.8-54.36c-.18-6.3.72-13,8.64-13,7.38,0,8.28,6.3,8.46,11.88l1.8,53.1c.18,4,.36,8.64,1.8,11.16s5.94,3.6,10.08,3.6h5.76a9.52,9.52,0,0,0,5.4-1.62l25.38-16V619.55c0-5.94,1.26-11.88,8.64-11.88s8.63,5.94,8.63,11.88Z" transform="translate(-116.36 -241.53)"/><path d="M1247.33,672.11c0,9.72-.36,15.3,11.52,15.3h8.82c7,0,10.26-.54,12.06-7.56,1.08-4.14,4.32-7,8.64-7a8.68,8.68,0,0,1,8.82,8.64c0,4.86-3.06,11-5.94,14.4-6.3,7.56-14.58,8.82-23.76,8.82h-8.82c-8.64,0-16.2-2-22.32-8.64-6.65-7.38-6.3-14.76-6.3-24.12V625h-5.57c-5,0-11.88-1.08-11.88-8.64,0-7.38,6.12-8.64,11.88-8.64h5.57V590c0-5.94,1.27-11.88,8.64-11.88s8.64,5.94,8.64,11.88v17.64h29c5.76,0,11.88,1.26,11.88,8.64,0,7.56-6.84,8.64-11.88,8.64h-29Z" transform="translate(-116.36 -241.53)"/><path d="M1393.49,687.41h13c5.76,0,11.88,1.26,11.88,8.64,0,7.56-6.84,8.64-11.88,8.64h-43.92c-5,0-11.88-1.08-11.88-8.64,0-7.38,6.12-8.64,11.88-8.64h13.68V625h-13.68c-5,0-11.88-1.08-11.88-8.64,0-7.38,6.12-8.64,11.88-8.64h18.18c9.9,0,12.78,1.8,12.78,12.06Zm-26.1-114.66c0-6.12,3.42-8.1,8.1-8.1h9.9c4.68,0,8.1,2,8.1,8.1V581c0,6.12-3.42,8.1-8.1,8.1h-9.9c-4.68,0-8.1-2-8.1-8.1Z" transform="translate(-116.36 -241.53)"/><path d="M1471.79,639.89c0-11.52,2.34-15.48,11-22.5,8.46-7,12.42-9.72,24.48-9.72h13.68c12.06,0,16,2.7,24.48,9.72,8.64,7,11,11,11,22.5v32.58c0,11.34-2.88,15.66-11.88,23.22s-12.6,9-23.58,9h-13.68c-11,0-14.58-1.44-23.58-9s-11.88-11.88-11.88-23.22Zm17.28,32.58c0,3.6,1.26,5.94,6.3,10.26,3.78,3.24,6.48,4.68,11.88,4.68h13.68c5.4,0,8.1-1.44,11.88-4.68,5-4.32,6.3-6.66,6.3-10.26V639.89c0-3.6-1.26-5.94-6.3-10.26-3.78-3.24-6.48-4.68-11.88-4.68h-13.68c-5.4,0-8.1,1.44-11.88,4.68-5,4.32-6.3,6.66-6.3,10.26Z" transform="translate(-116.36 -241.53)"/><path d="M1618.67,642.59v50.22c0,5.94-1.26,11.88-8.64,11.88s-8.64-5.94-8.64-11.88V620.45c0-6.3.72-12.78,8.64-12.78,7.74,0,8.64,6.48,8.64,12.6v2.34l14-9.18c4.5-2.88,9.36-5.76,14.94-5.76h12.78c6.65,0,10.79,1.8,16,6.3,7.74,6.66,7.38,14,7.74,23.4l1.8,54.36c.18,6.12-.72,13-8.46,13-7,0-8.45-5.94-8.64-11.7l-1.8-53.28c-.36-10.62-1.25-14.76-11.69-14.76h-5.76a10.42,10.42,0,0,0-5.4,1.62Z" transform="translate(-116.36 -241.53)"/><path d="M1760.5,625c-3.6,0-9.72-.72-9.72,4.86,0,2.88,2.16,4,4.68,5l43.2,19.62c11.16,5,16.92,12.06,16.92,24.48,0,17.46-11.88,25.74-28.44,25.74H1760.5c-9,0-15.12-.36-21.59-5.4-3.24-2.52-7.92-5.76-7.92-10.08a8.84,8.84,0,0,1,9-8.64,8.31,8.31,0,0,1,6.65,3.06c3.07,3.42,8.46,3.78,13.86,3.78h23.4c6.12,0,14.4.54,14.4-9.54,0-4.14-5-6.84-9-8.64l-40.67-18.54c-9.55-4.32-15.13-9.9-15.13-21.06,0-13.68,10.8-22,23.76-22h29.52c9.54,0,13.5.54,20,5.94,3.24,2.7,6.84,4.86,6.84,9.72a8.8,8.8,0,0,1-8.82,8.64c-3.24,0-5.22-1.26-7.38-3.6-2.88-3.06-5.94-3.42-10.62-3.42Z" transform="translate(-116.36 -241.53)"/></svg>