<svg id="Layer_1" data-name="Layer 1" xmlns="http://www.w3.org/2000/svg" width="1508.73" height="571.48" viewBox="0 0 1508.73 571.48"><defs><style>.cls-1{fill-rule:evenodd;}</style></defs><title>MrakSolutions logo font</title><path d="M357.72,258.07l23.85,13.78,21.5,12.42,25.72,14.86,20.69,11.95,26.1,15.09,21,12.13,24.9,14.39,22.55,13,22.5,13,24.85,14.35,4.82,2.79a11,11,0,0,0,8.09,1.06,10.75,10.75,0,0,0,6.28-4.83c2.64-5,1.31-11.43-3.77-14.37L583,363.94l-21.51-12.42-25.71-14.86-20.69-12-26.11-15.09-21-12.13L443,283.1l-22.56-13-22.5-13-24.85-14.35-4.81-2.79a10.94,10.94,0,0,0-8.1-1.05,10.5,10.5,0,0,0-2.5,19.19Z" transform="translate(-113.36 -238.52)"/><polyline class="cls-1" points="249.65 10.48 264.56 19.09 279.46 27.7 294.37 36.31 309.27 44.93 324.18 53.54 339.08 62.15 353.99 70.76 368.89 79.37 383.8 87.98 398.7 96.6 413.61 105.21 428.51 113.82 443.42 122.43 458.32 131.04 473.23 139.66 488.14 148.27"/><line x1="487.47" y1="423.19" x2="488.14" y2="148.27"/><path d="M611.34,661.71l0-7.39,0-20,.07-29.68.09-36,.1-39.66.09-39.77.09-37.33.08-31.34.05-22.68c0-3.56,0-7.12,0-10.68v-.47c0-5.49-4.84-10.75-10.5-10.5a10.68,10.68,0,0,0-10.5,10.5l0,7.39-.05,19.95-.07,29.68-.08,36-.1,39.66-.1,39.77-.09,37.33-.07,31.34-.06,22.68c0,3.56,0,7.12,0,10.68v.47c0,5.49,4.84,10.75,10.5,10.5a10.69,10.69,0,0,0,10.5-10.5Z" transform="translate(-113.36 -238.52)"/><polyline points="249.65 10.48 190.03 44.93 130.41 79.37 70.79 113.82 11.17 148.27"/><path d="M357.72,239.93l-20.25,11.7L305.4,270.16l-12,6.91L262.7,294.83l-23.84,13.78-16.62,9.6-33,19.06-12.92,7.47-28.57,16.51-27,15.61-1.49.86a10.51,10.51,0,0,0-3.76,14.37,10.69,10.69,0,0,0,14.36,3.77l20.24-11.7,32.08-18.53,12-6.91L224.85,341l23.84-13.78,16.61-9.6,33-19.06,12.93-7.47,28.57-16.51,27-15.61,1.49-.86a10.91,10.91,0,0,0,4.82-6.28,10.5,10.5,0,0,0-15.42-11.86Z" transform="translate(-113.36 -238.52)"/><polyline points="248.99 560.98 248.99 491.92 248.99 422.86"/><path d="M372.85,799.5V689.58c0-9.25.08-18.49,0-27.74v-.46a10.87,10.87,0,0,0-3.07-7.43,10.51,10.51,0,0,0-17.93,7.43V771.3c0,9.25-.07,18.49,0,27.73,0,.16,0,.31,0,.47a10.8,10.8,0,0,0,3.08,7.42,10.49,10.49,0,0,0,17.92-7.42Z" transform="translate(-113.36 -238.52)"/><line x1="144.98" y1="156.88" x2="323.85" y2="53.54"/><path d="M263.65,404.47l4.77-2.76,13-7.51,19.23-11.11,23.47-13.56,25.7-14.86,26.07-15.06,24.19-14,20.45-11.81,14.71-8.5c2.32-1.34,4.65-2.66,7-4l.3-.17a10.89,10.89,0,0,0,4.83-6.28A10.51,10.51,0,0,0,431.91,283l-4.78,2.76-13,7.52L394.9,304.38l-23.47,13.56-25.7,14.85-26.07,15.06-24.19,14L275,373.64l-14.71,8.5c-2.32,1.34-4.65,2.66-7,4l-.3.18a10.48,10.48,0,0,0-3.77,14.36,10.7,10.7,0,0,0,14.37,3.77Z" transform="translate(-113.36 -238.52)"/><line x1="159.56" y1="233.73" x2="338.42" y2="130.38"/><path d="M278.22,481.31l4.78-2.76L296,471l19.23-11.11,23.47-13.56,25.71-14.85,26.06-15.06,24.2-14,20.45-11.82,14.7-8.49c2.32-1.34,4.66-2.66,7-4l.29-.17a10.87,10.87,0,0,0,4.83-6.27,10.5,10.5,0,0,0-15.42-11.86l-4.78,2.76-13,7.51-19.23,11.11L386,394.78,360.3,409.63l-26.06,15.06-24.2,14-20.45,11.82L274.89,459c-2.32,1.34-4.66,2.66-7,4l-.3.17a10.51,10.51,0,0,0-3.76,14.37,10.69,10.69,0,0,0,14.36,3.76Z" transform="translate(-113.36 -238.52)"/><polyline points="368.36 492.01 427.92 457.6 487.47 423.19"/><path d="M487,739.59l20.2-11.67,32.1-18.54,11.93-6.9,30.59-17.67c8-4.6,15.95-9.15,23.88-13.8l.41-.23a10.51,10.51,0,0,0,3.76-14.37,10.69,10.69,0,0,0-14.36-3.77l-20.2,11.67-32.11,18.55-11.92,6.89-30.59,17.68c-8,4.6-16,9.15-23.89,13.8l-.4.23a10.86,10.86,0,0,0-4.83,6.28A10.5,10.5,0,0,0,487,739.59Z" transform="translate(-113.36 -238.52)"/><polyline points="10.51 423.19 70.17 457.66 129.84 492.13"/><path d="M118.57,670.78l20.26,11.7L170.93,701l12,6.91,30.65,17.71c8,4.62,15.94,9.27,23.95,13.84l.4.23a10.88,10.88,0,0,0,8.09,1.06,10.68,10.68,0,0,0,6.28-4.83c2.64-5,1.31-11.43-3.77-14.36l-20.26-11.71-32.1-18.54-12-6.92-30.65-17.71c-8-4.61-15.94-9.27-24-13.83l-.4-.24a11,11,0,0,0-8.09-1.06,10.75,10.75,0,0,0-6.28,4.83c-2.64,5-1.31,11.43,3.77,14.37Z" transform="translate(-113.36 -238.52)"/><line x1="11.17" y1="148.27" x2="10.51" y2="423.19"/><path d="M114,386.79l0,7.39,0,19.95-.07,29.68-.09,36-.1,39.66-.09,39.77-.09,37.33-.08,31.34,0,22.68c0,3.56-.05,7.12,0,10.68v.47c0,5.49,4.84,10.75,10.5,10.5a10.68,10.68,0,0,0,10.5-10.5l0-7.39.05-20,.07-29.68.08-36,.1-39.66.1-39.77.09-37.33.07-31.34.06-22.68c0-3.56,0-7.12,0-10.68v-.47c0-5.49-4.84-10.75-10.5-10.5a10.69,10.69,0,0,0-10.5,10.5Z" transform="translate(-113.36 -238.52)"/><path d="M119.23,395.86l23.7,13.66,21.55,12.42,25.66,14.8,20.64,11.9,26,15,20.88,12L282.54,490l22.38,12.91,22.55,13,24.8,14.3,4.78,2.76a10.94,10.94,0,0,0,8.1,1,10.71,10.71,0,0,0,6.27-4.82c2.65-5,1.32-11.44-3.77-14.37L344,501.19l-21.55-12.42L296.75,474l-20.64-11.9-26-15L229.2,435l-24.85-14.33L182,407.78l-22.55-13-24.8-14.3-4.78-2.76a10.92,10.92,0,0,0-8.09-1.05,10.71,10.71,0,0,0-6.27,4.82c-2.65,5-1.32,11.44,3.76,14.37Z" transform="translate(-113.36 -238.52)"/><polyline class="cls-1" points="11.17 148.27 26.03 156.84 40.9 165.41 55.76 173.98 70.62 182.55 85.49 191.12 100.35 199.69 115.22 208.26 130.08 216.83 144.94 225.4 159.81 233.97 174.67 242.54 189.53 251.12 204.4 259.69 219.26 268.26 234.13 276.83 248.99 285.4"/><polyline points="488.14 148.27 428.35 182.55 368.56 216.83 308.78 251.12 248.99 285.4"/><path d="M596.2,377.72l-20.3,11.64-32.16,18.45-12,6.88-30.82,17.67L477,446.07l-16.66,9.55-33.09,19-13,7.43-28.65,16.43L358.55,514l-1.5.85a10.51,10.51,0,0,0-3.76,14.37A10.7,10.7,0,0,0,367.65,533L388,521.35l32.17-18.45,12-6.88,30.83-17.67,23.9-13.71,16.66-9.55,33.09-19,13-7.43,28.65-16.43,27.1-15.54,1.49-.85a10.5,10.5,0,0,0-10.6-18.14Z" transform="translate(-113.36 -238.52)"/><polyline points="129.75 492.08 129.91 423.35 130.08 354.62"/><path d="M253.61,730.6l.06-23.3.09-37.06,0-13.76.09-35.3c0-9.19.1-18.38.06-27.57v-.46a10.81,10.81,0,0,0-3.07-7.43,10.51,10.51,0,0,0-17.93,7.43l-.05,23.3-.09,37.06,0,13.76-.09,35.3c0,9.19-.1,18.38-.07,27.57,0,.15,0,.31,0,.46a10.87,10.87,0,0,0,3.08,7.43,10.5,10.5,0,0,0,17.92-7.43Z" transform="translate(-113.36 -238.52)"/><polyline points="368.23 492.08 368.4 423.35 368.56 354.62"/><path d="M492.1,730.6l0-23.3.09-37.06,0-13.76.08-35.3c0-9.19.1-18.38.07-27.57v-.46a10.82,10.82,0,0,0-3.08-7.43,10.5,10.5,0,0,0-17.92,7.43l-.06,23.3-.09,37.06,0,13.76-.08,35.3c0,9.19-.11,18.38-.07,27.57v.46a10.81,10.81,0,0,0,3.07,7.43,10.51,10.51,0,0,0,17.93-7.43Z" transform="translate(-113.36 -238.52)"/><line x1="130.41" y1="354.95" x2="248.99" y2="423.19"/><path d="M238.47,602.54l11.83,6.81,28.38,16.33,34.21,19.68,29.56,17c4.8,2.76,9.56,5.59,14.4,8.29l.2.12a11,11,0,0,0,8.1,1.05,10.71,10.71,0,0,0,6.27-4.82c2.64-5,1.32-11.44-3.77-14.37l-11.82-6.8-28.38-16.33-34.21-19.69-29.57-17c-4.79-2.76-9.56-5.59-14.39-8.28l-.21-.12a10.92,10.92,0,0,0-8.09-1.06,10.72,10.72,0,0,0-6.27,4.83c-2.65,5-1.32,11.44,3.76,14.36Z" transform="translate(-113.36 -238.52)"/><line x1="368.89" y1="354.95" x2="248.99" y2="423.19"/><path d="M477,584.41l-12,6.81-28.63,16.3-34.61,19.7-29.93,17c-4.85,2.76-9.74,5.45-14.55,8.29l-.21.11A10.51,10.51,0,0,0,353.29,667a10.71,10.71,0,0,0,14.36,3.77l12-6.82,28.63-16.29L442.88,628l29.92-17c4.85-2.76,9.75-5.45,14.55-8.28l.21-.12A10.5,10.5,0,0,0,477,584.41Z" transform="translate(-113.36 -238.52)"/><polyline points="130.04 491.76 189.7 526.23 249.37 560.7"/><path d="M238.1,739.35l20.26,11.7,32.1,18.55,12,6.91,30.65,17.71c8,4.62,15.94,9.27,23.94,13.84l.41.23a10.88,10.88,0,0,0,8.09,1.06,10.68,10.68,0,0,0,6.28-4.83c2.64-5,1.31-11.43-3.77-14.36l-20.26-11.71-32.1-18.54-12-6.92-30.65-17.71c-8-4.61-15.94-9.27-24-13.83l-.4-.24a11,11,0,0,0-8.09-1.06,10.75,10.75,0,0,0-6.28,4.83c-2.64,5-1.31,11.43,3.77,14.37Z" transform="translate(-113.36 -238.52)"/><polyline points="249.15 560.64 308.7 526.23 368.25 491.82"/><path d="M367.81,808.23,388,796.56,420.11,778,432,771.12l30.59-17.68c8-4.6,15.95-9.15,23.88-13.8l.41-.23a10.5,10.5,0,1,0-10.6-18.13L456.12,733,424,751.5l-11.93,6.89L381.5,776.06c-8,4.6-15.95,9.15-23.88,13.8l-.41.24a10.48,10.48,0,0,0-3.77,14.36,10.7,10.7,0,0,0,14.37,3.77Z" transform="translate(-113.36 -238.52)"/><path d="M825.49,488.69V369.45L774,461.19h-12.1l-51.7-91.74V488.69h-19.8V332.49h20.9l56.54,101.42,56.76-101.42h20.68v156.2Z" transform="translate(-113.36 -238.52)"/><path d="M940.33,390.79a47.68,47.68,0,0,0-25.63,7.37A38.65,38.65,0,0,0,899,417.85v70.84H879.61V374.51h18v26a53.6,53.6,0,0,1,15.73-19.25A39.2,39.2,0,0,1,934,373h3.74a13.5,13.5,0,0,1,2.64.22Z" transform="translate(-113.36 -238.52)"/><path d="M950.44,455.69a29.73,29.73,0,0,1,6.27-18.92q6.27-8,17.27-12.35t25.52-4.37a116.31,116.31,0,0,1,16.28,1.21,74.83,74.83,0,0,1,15.18,3.63v-8.31q0-13-7.92-20.51t-22.44-7.48A49.33,49.33,0,0,0,982.45,392a100.81,100.81,0,0,0-18.37,9.79l-7-13.64a93.59,93.59,0,0,1,22.44-11.55,71.29,71.29,0,0,1,23.32-3.85q22,0,34.76,12.1t12.76,33.7v48.2q0,3.5,1.43,5.13c1,1.09,2.53,1.7,4.73,1.85v15c-1.9.29-3.56.51-5,.66s-2.53.22-3.41.22q-6.81,0-10.23-3.74a13.85,13.85,0,0,1-3.85-7.92l-.44-7.26a48.91,48.91,0,0,1-19.58,15,59.57,59.57,0,0,1-24,5.28,43.67,43.67,0,0,1-20.46-4.7,36,36,0,0,1-14.08-12.68A32.61,32.61,0,0,1,950.44,455.69Zm74.8,8.05a29.31,29.31,0,0,0,4.18-6.21,12.72,12.72,0,0,0,1.54-5.34V438a83.53,83.53,0,0,0-14.3-4,79.48,79.48,0,0,0-14.74-1.41q-14.74,0-23.87,5.77t-9.13,15.79a20.77,20.77,0,0,0,3,10.56,22.64,22.64,0,0,0,8.8,8.39q5.84,3.27,14.41,3.27a42.1,42.1,0,0,0,17.16-3.59A37.12,37.12,0,0,0,1025.24,463.74Z" transform="translate(-113.36 -238.52)"/><path d="M1162.3,488.69,1122.48,433l-21.78,20.39v35.28h-19.36V328.09h19.36V433.24l59.4-58.73H1181l-45.76,47.34,48,66.84Z" transform="translate(-113.36 -238.52)"/><path d="M782.15,629.27a32.85,32.85,0,0,0-7-5.94,62.94,62.94,0,0,0-9.9-5.17,69.57,69.57,0,0,0-12-3.74A63,63,0,0,0,739.69,613q-18,0-26.62,6.8t-8.58,18.64q0,8.33,4.4,13.16t13.53,7.89q9.12,3.07,23.21,6.36a157.66,157.66,0,0,1,28.16,8.56q11.88,5,18.26,13.48t6.38,22.48q0,11.19-4.29,19.41a37.5,37.5,0,0,1-12,13.6,53.34,53.34,0,0,1-18,7.9,94.72,94.72,0,0,1-22.44,2.52,106.56,106.56,0,0,1-23.21-2.53A99.84,99.84,0,0,1,697,743.89a91.92,91.92,0,0,1-18.92-12.1l9.46-16.72a49.1,49.1,0,0,0,9.13,7.37,85.89,85.89,0,0,0,12.76,6.71,87.49,87.49,0,0,0,15.51,5A78.13,78.13,0,0,0,742.11,736q16.71,0,26-6t9.24-17.63q0-8.77-5.17-14t-15.29-8.78q-10.12-3.51-24.64-7a169.72,169.72,0,0,1-26.62-8.67q-10.79-4.71-16.17-12.39t-5.39-20q0-14.91,7.26-25.23a44.69,44.69,0,0,1,20-15.58,74.92,74.92,0,0,1,28.82-5.26,83.75,83.75,0,0,1,19.69,2.2,80.07,80.07,0,0,1,17,6.16,74.77,74.77,0,0,1,14.52,9.46Z" transform="translate(-113.36 -238.52)"/><path d="M871.47,754.89a57.3,57.3,0,0,1-23.54-4.7,56,56,0,0,1-18.26-12.88,57.93,57.93,0,0,1-11.88-18.89,63.18,63.18,0,0,1,0-45.2,57.93,57.93,0,0,1,11.88-18.89A55.75,55.75,0,0,1,848,641.44a57.69,57.69,0,0,1,77.33,31.78,63.18,63.18,0,0,1,0,45.2,58.27,58.27,0,0,1-11.88,18.89,55.78,55.78,0,0,1-18.37,12.88A58.13,58.13,0,0,1,871.47,754.89Zm-38.06-58.75a44.15,44.15,0,0,0,5.17,21.34,40.52,40.52,0,0,0,13.75,15.14,35.67,35.67,0,0,0,38.39-.11,41,41,0,0,0,13.86-15.35,44.92,44.92,0,0,0,5.17-21.45,44.29,44.29,0,0,0-5.17-21.34,41.13,41.13,0,0,0-13.86-15.24,34.57,34.57,0,0,0-19.25-5.66,33.51,33.51,0,0,0-19.14,5.77,42.35,42.35,0,0,0-13.75,15.35A44.58,44.58,0,0,0,833.41,696.14Z" transform="translate(-113.36 -238.52)"/><path d="M953.52,592.09h19.36v131.5q0,9.49,2.64,11.71a9.66,9.66,0,0,0,6.39,2.21,38.16,38.16,0,0,0,8.8-1,56.79,56.79,0,0,0,7-2.09l3.08,15.84a63,63,0,0,1-11.45,3.3,60.26,60.26,0,0,1-11.66,1.32q-11.21,0-17.71-6.41t-6.49-17.89Z" transform="translate(-113.36 -238.52)"/><path d="M1014.9,707V638.51h19.36V703.2q0,17.49,6.16,26.23t18.26,8.74a36.32,36.32,0,0,0,15.29-3.38,42.46,42.46,0,0,0,13.31-9.7,44.91,44.91,0,0,0,9.24-15.05V638.51h19.36v92.23q0,3.5,1.43,5.13c1,1.09,2.53,1.71,4.73,1.86v15c-2.2.29-3.92.47-5.17.55s-2.45.11-3.63.11a14.08,14.08,0,0,1-9.46-3.39,11.36,11.36,0,0,1-4.18-8.42l-.44-13.34A52.49,52.49,0,0,1,1079,747.89a56,56,0,0,1-27.61,7q-18,0-27.28-12.14T1014.9,707Z" transform="translate(-113.36 -238.52)"/><path d="M1207.62,747.63c-1.61.73-3.81,1.69-6.6,2.86a62.88,62.88,0,0,1-9.68,3.08,49.77,49.77,0,0,1-11.66,1.32,32.91,32.91,0,0,1-13-2.53,20.84,20.84,0,0,1-9.46-7.92q-3.51-5.38-3.52-13.53V653.69H1138.1V638.51h15.62V600.23h19.36v38.28h25.74v15.18h-25.74V725q.45,6.16,4.18,9.13a13.75,13.75,0,0,0,8.8,3,27.58,27.58,0,0,0,10.56-2,64.32,64.32,0,0,0,6.38-2.86Z" transform="translate(-113.36 -238.52)"/><path d="M1225.66,616.29v-24.2H1245v24.2Zm0,136.4V637.85H1245V752.69Z" transform="translate(-113.36 -238.52)"/><path d="M1326.42,754.89a57.3,57.3,0,0,1-23.54-4.7,56,56,0,0,1-18.26-12.88,58.27,58.27,0,0,1-11.88-18.89,63.18,63.18,0,0,1,0-45.2,58.27,58.27,0,0,1,11.88-18.89A55.85,55.85,0,0,1,1303,641.44a57.69,57.69,0,0,1,77.33,31.78,63.18,63.18,0,0,1,0,45.2,58.27,58.27,0,0,1-11.88,18.89,55.78,55.78,0,0,1-18.37,12.88A58.09,58.09,0,0,1,1326.42,754.89Zm-38.06-58.75a44.15,44.15,0,0,0,5.17,21.34,40.52,40.52,0,0,0,13.75,15.14,35.67,35.67,0,0,0,38.39-.11,41,41,0,0,0,13.86-15.35,44.92,44.92,0,0,0,5.17-21.45,44.29,44.29,0,0,0-5.17-21.34,41.13,41.13,0,0,0-13.86-15.24,34.55,34.55,0,0,0-19.25-5.66,33.51,33.51,0,0,0-19.14,5.77,42.35,42.35,0,0,0-13.75,15.35A44.58,44.58,0,0,0,1288.36,696.14Z" transform="translate(-113.36 -238.52)"/><path d="M1507.7,752.69h-19.36V689q0-18.1-5.61-26.5t-17-8.39A34.77,34.77,0,0,0,1450,658a47.33,47.33,0,0,0-13.86,10.55,39.39,39.39,0,0,0-8.69,15.32v68.78H1408V638.51h17.6v24.66a49.59,49.59,0,0,1,11.88-14A55.36,55.36,0,0,1,1454,640a57.58,57.58,0,0,1,19.36-3.27q9.9,0,16.61,3.6a26.92,26.92,0,0,1,10.56,10,46.23,46.23,0,0,1,5.5,15.18,102.37,102.37,0,0,1,1.65,19Z" transform="translate(-113.36 -238.52)"/><path d="M1577.22,754.89a75.47,75.47,0,0,1-26.84-4.73A57.22,57.22,0,0,1,1528.82,736l7.48-13.64q9.9,9.24,19.8,13.2a54,54,0,0,0,20.24,4q11.88,0,19.36-4.45a14.36,14.36,0,0,0,7.48-13.13q0-6.33-3.85-9.39a32.33,32.33,0,0,0-10.89-5.13q-7.05-2.07-16.72-4.69a133.69,133.69,0,0,1-20-7.42,31.33,31.33,0,0,1-12.32-9.83q-4.19-5.91-4.18-14.85,0-10.92,5.72-18.46a35.42,35.42,0,0,1,15.73-11.46,61.9,61.9,0,0,1,22.77-3.93,64.2,64.2,0,0,1,23.1,4,49,49,0,0,1,17.82,11.66l-8.8,13.42a45.15,45.15,0,0,0-15-10.45,46.94,46.94,0,0,0-18.26-3.41,48,48,0,0,0-11.66,1.42,20.31,20.31,0,0,0-9.46,5q-3.75,3.6-3.74,10.15,0,5.44,3,8.61a22.94,22.94,0,0,0,8.8,5.35q5.82,2.17,14.19,4.8,13,3.71,22.55,7.41t14.85,9.6q5.28,5.9,5.28,16.36,0,16.14-12.32,25.2T1577.22,754.89Z" transform="translate(-113.36 -238.52)"/></svg>